<svg
    xmlns="http://www.w3.org/2000/svg"
    width="256"
    height="256"
    viewBox="0 0 256 256">

  <!-- Transparent background -->
  <rect x="0" y="0" width="256" height="256" fill="white" />

  <!-- Cobblestone outlines -->
  <g fill="none" stroke="#000" stroke-width="3" stroke-linejoin="round">

    <!-- Row 1 -->
    <path d="M20 40
             C10 20, 50 10, 70 30
             C90 50, 60 70, 40 60
             Z" />

    <path d="M90 35
             C80 15, 120 10, 140 30
             C160 50, 130 70, 110 60
             Z" />

    <path d="M160 40
             C150 20, 190 10, 210 30
             C230 50, 200 70, 180 60
             Z" />

    <!-- Row 2 -->
    <path d="M40 110
             C20 90, 60 80, 80 100
             C100 120, 70 140, 50 130
             Z" />

    <path d="M120 115
             C100 95, 140 85, 160 105
             C180 125, 150 145, 130 135
             Z" />

    <path d="M190 110
             C170 90, 210 80, 230 100
             C250 120, 220 140, 200 130
             Z" />

    <!-- Row 3 -->
    <path d="M25 180
             C5 160, 45 150, 65 170
             C85 190, 55 210, 35 200
             Z" />

    <path d="M95 185
             C75 165, 115 155, 135 175
             C155 195, 125 215, 105 205
             Z" />

    <path d="M165 180
             C145 160, 185 150, 205 170
             C225 190, 195 210, 175 200
             Z" />

  </g>
</svg>